<svg xmlns="http://www.w3.org/2000/svg" width="2009.723" height="1064" viewBox="0 0 2009.723 1064"><defs><style>.a{opacity:0.2;}.b{fill:#f79623;}.c{fill:#41f200;}.d{fill:red;}.e{fill:none;stroke:#4d00ff;}</style></defs><g class="a"><rect class="b" width="19" height="19"/><circle class="c" cx="8.5" cy="8.5" r="8.5" transform="translate(31 174)"/><path class="d" d="M9,0l9,16H0Z" transform="matrix(0.574, -0.819, 0.819, 0.574, 140.285, 30.784)"/><line class="e" x2="15" y2="15" transform="translate(47.5 47.5)"/><g transform="translate(263.715)"><rect class="b" width="19" height="19"/><circle class="c" cx="8.5" cy="8.5" r="8.5" transform="translate(31 174)"/><path class="d" d="M9,0l9,16H0Z" transform="matrix(0.574, -0.819, 0.819, 0.574, 140.285, 30.784)"/><line class="e" x2="15" y2="15" transform="translate(47.5 47.5)"/></g><g transform="translate(527.431)"><rect class="b" width="19" height="19"/><circle class="c" cx="8.5" cy="8.5" r="8.5" transform="translate(31 174)"/><path class="d" d="M9,0l9,16H0Z" transform="matrix(0.574, -0.819, 0.819, 0.574, 140.285, 30.784)"/><line class="e" x2="15" y2="15" transform="translate(47.5 47.5)"/></g><g transform="translate(791.146)"><rect class="b" width="19" height="19"/><circle class="c" cx="8.5" cy="8.5" r="8.5" transform="translate(31 174)"/><path class="d" d="M9,0l9,16H0Z" transform="matrix(0.574, -0.819, 0.819, 0.574, 140.285, 30.784)"/><line class="e" x2="15" y2="15" transform="translate(47.5 47.5)"/></g><g transform="translate(1054.862)"><rect class="b" width="19" height="19"/><circle class="c" cx="8.5" cy="8.5" r="8.5" transform="translate(31 174)"/><path class="d" d="M9,0l9,16H0Z" transform="matrix(0.574, -0.819, 0.819, 0.574, 140.285, 30.784)"/><line class="e" x2="15" y2="15" transform="translate(47.5 47.5)"/></g><g transform="translate(1318.577)"><rect class="b" width="19" height="19"/><circle class="c" cx="8.5" cy="8.5" r="8.5" transform="translate(31 174)"/><path class="d" d="M9,0l9,16H0Z" transform="matrix(0.574, -0.819, 0.819, 0.574, 140.285, 30.784)"/><line class="e" x2="15" y2="15" transform="translate(47.5 47.5)"/></g><g transform="translate(1582.292)"><rect class="b" width="19" height="19"/><circle class="c" cx="8.5" cy="8.5" r="8.5" transform="translate(31 174)"/><path class="d" d="M9,0l9,16H0Z" transform="matrix(0.574, -0.819, 0.819, 0.574, 140.285, 30.784)"/><line class="e" x2="15" y2="15" transform="translate(47.5 47.5)"/></g><g transform="translate(1846.008)"><rect class="b" width="19" height="19"/><circle class="c" cx="8.5" cy="8.5" r="8.5" transform="translate(31 174)"/><path class="d" d="M9,0l9,16H0Z" transform="matrix(0.574, -0.819, 0.819, 0.574, 140.285, 30.784)"/><line class="e" x2="15" y2="15" transform="translate(47.5 47.5)"/></g><g transform="translate(0 291)"><rect class="b" width="19" height="19"/><circle class="c" cx="8.5" cy="8.5" r="8.5" transform="translate(31 174)"/><path class="d" d="M9,0l9,16H0Z" transform="matrix(0.574, -0.819, 0.819, 0.574, 140.285, 30.784)"/><line class="e" x2="15" y2="15" transform="translate(47.5 47.5)"/></g><g transform="translate(263.715 291)"><rect class="b" width="19" height="19"/><circle class="c" cx="8.5" cy="8.5" r="8.5" transform="translate(31 174)"/><path class="d" d="M9,0l9,16H0Z" transform="matrix(0.574, -0.819, 0.819, 0.574, 140.285, 30.784)"/><line class="e" x2="15" y2="15" transform="translate(47.5 47.5)"/></g><g transform="translate(527.431 291)"><rect class="b" width="19" height="19"/><circle class="c" cx="8.5" cy="8.5" r="8.5" transform="translate(31 174)"/><path class="d" d="M9,0l9,16H0Z" transform="matrix(0.574, -0.819, 0.819, 0.574, 140.285, 30.784)"/><line class="e" x2="15" y2="15" transform="translate(47.5 47.5)"/></g><g transform="translate(791.146 291)"><rect class="b" width="19" height="19"/><circle class="c" cx="8.5" cy="8.5" r="8.5" transform="translate(31 174)"/><path class="d" d="M9,0l9,16H0Z" transform="matrix(0.574, -0.819, 0.819, 0.574, 140.285, 30.784)"/><line class="e" x2="15" y2="15" transform="translate(47.5 47.5)"/></g><g transform="translate(1054.862 291)"><rect class="b" width="19" height="19"/><circle class="c" cx="8.5" cy="8.5" r="8.5" transform="translate(31 174)"/><path class="d" d="M9,0l9,16H0Z" transform="matrix(0.574, -0.819, 0.819, 0.574, 140.285, 30.784)"/><line class="e" x2="15" y2="15" transform="translate(47.5 47.5)"/></g><g transform="translate(1318.577 291)"><rect class="b" width="19" height="19"/><circle class="c" cx="8.5" cy="8.5" r="8.5" transform="translate(31 174)"/><path class="d" d="M9,0l9,16H0Z" transform="matrix(0.574, -0.819, 0.819, 0.574, 140.285, 30.784)"/><line class="e" x2="15" y2="15" transform="translate(47.5 47.5)"/></g><g transform="translate(1582.292 291)"><rect class="b" width="19" height="19"/><circle class="c" cx="8.5" cy="8.5" r="8.5" transform="translate(31 174)"/><path class="d" d="M9,0l9,16H0Z" transform="matrix(0.574, -0.819, 0.819, 0.574, 140.285, 30.784)"/><line class="e" x2="15" y2="15" transform="translate(47.5 47.5)"/></g><g transform="translate(1846.008 291)"><rect class="b" width="19" height="19"/><circle class="c" cx="8.5" cy="8.5" r="8.5" transform="translate(31 174)"/><path class="d" d="M9,0l9,16H0Z" transform="matrix(0.574, -0.819, 0.819, 0.574, 140.285, 30.784)"/><line class="e" x2="15" y2="15" transform="translate(47.5 47.5)"/></g><g transform="translate(0 582)"><rect class="b" width="19" height="19"/><circle class="c" cx="8.5" cy="8.5" r="8.5" transform="translate(31 174)"/><path class="d" d="M9,0l9,16H0Z" transform="matrix(0.574, -0.819, 0.819, 0.574, 140.285, 30.784)"/><line class="e" x2="15" y2="15" transform="translate(47.5 47.5)"/></g><g transform="translate(263.715 582)"><rect class="b" width="19" height="19"/><circle class="c" cx="8.5" cy="8.5" r="8.5" transform="translate(31 174)"/><path class="d" d="M9,0l9,16H0Z" transform="matrix(0.574, -0.819, 0.819, 0.574, 140.285, 30.784)"/><line class="e" x2="15" y2="15" transform="translate(47.5 47.5)"/></g><g transform="translate(527.431 582)"><rect class="b" width="19" height="19"/><circle class="c" cx="8.5" cy="8.5" r="8.5" transform="translate(31 174)"/><path class="d" d="M9,0l9,16H0Z" transform="matrix(0.574, -0.819, 0.819, 0.574, 140.285, 30.784)"/><line class="e" x2="15" y2="15" transform="translate(47.5 47.5)"/></g><g transform="translate(791.146 582)"><rect class="b" width="19" height="19"/><circle class="c" cx="8.5" cy="8.5" r="8.5" transform="translate(31 174)"/><path class="d" d="M9,0l9,16H0Z" transform="matrix(0.574, -0.819, 0.819, 0.574, 140.285, 30.784)"/><line class="e" x2="15" y2="15" transform="translate(47.5 47.5)"/></g><g transform="translate(1054.862 582)"><rect class="b" width="19" height="19"/><circle class="c" cx="8.5" cy="8.5" r="8.5" transform="translate(31 174)"/><path class="d" d="M9,0l9,16H0Z" transform="matrix(0.574, -0.819, 0.819, 0.574, 140.285, 30.784)"/><line class="e" x2="15" y2="15" transform="translate(47.5 47.5)"/></g><g transform="translate(1318.577 582)"><rect class="b" width="19" height="19"/><circle class="c" cx="8.5" cy="8.5" r="8.5" transform="translate(31 174)"/><path class="d" d="M9,0l9,16H0Z" transform="matrix(0.574, -0.819, 0.819, 0.574, 140.285, 30.784)"/><line class="e" x2="15" y2="15" transform="translate(47.5 47.5)"/></g><g transform="translate(1582.292 582)"><rect class="b" width="19" height="19"/><circle class="c" cx="8.5" cy="8.5" r="8.5" transform="translate(31 174)"/><path class="d" d="M9,0l9,16H0Z" transform="matrix(0.574, -0.819, 0.819, 0.574, 140.285, 30.784)"/><line class="e" x2="15" y2="15" transform="translate(47.5 47.5)"/></g><g transform="translate(1846.008 582)"><rect class="b" width="19" height="19"/><circle class="c" cx="8.5" cy="8.5" r="8.5" transform="translate(31 174)"/><path class="d" d="M9,0l9,16H0Z" transform="matrix(0.574, -0.819, 0.819, 0.574, 140.285, 30.784)"/><line class="e" x2="15" y2="15" transform="translate(47.5 47.5)"/></g><g transform="translate(0 873)"><rect class="b" width="19" height="19"/><circle class="c" cx="8.5" cy="8.5" r="8.5" transform="translate(31 174)"/><path class="d" d="M9,0l9,16H0Z" transform="matrix(0.574, -0.819, 0.819, 0.574, 140.285, 30.784)"/><line class="e" x2="15" y2="15" transform="translate(47.5 47.5)"/></g><g transform="translate(263.715 873)"><rect class="b" width="19" height="19"/><circle class="c" cx="8.5" cy="8.5" r="8.5" transform="translate(31 174)"/><path class="d" d="M9,0l9,16H0Z" transform="matrix(0.574, -0.819, 0.819, 0.574, 140.285, 30.784)"/><line class="e" x2="15" y2="15" transform="translate(47.5 47.5)"/></g><g transform="translate(527.431 873)"><rect class="b" width="19" height="19"/><circle class="c" cx="8.5" cy="8.5" r="8.5" transform="translate(31 174)"/><path class="d" d="M9,0l9,16H0Z" transform="matrix(0.574, -0.819, 0.819, 0.574, 140.285, 30.784)"/><line class="e" x2="15" y2="15" transform="translate(47.5 47.5)"/></g><g transform="translate(791.146 873)"><rect class="b" width="19" height="19"/><circle class="c" cx="8.5" cy="8.5" r="8.5" transform="translate(31 174)"/><path class="d" d="M9,0l9,16H0Z" transform="matrix(0.574, -0.819, 0.819, 0.574, 140.285, 30.784)"/><line class="e" x2="15" y2="15" transform="translate(47.5 47.5)"/></g><g transform="translate(1054.862 873)"><rect class="b" width="19" height="19"/><circle class="c" cx="8.5" cy="8.5" r="8.5" transform="translate(31 174)"/><path class="d" d="M9,0l9,16H0Z" transform="matrix(0.574, -0.819, 0.819, 0.574, 140.285, 30.784)"/><line class="e" x2="15" y2="15" transform="translate(47.5 47.5)"/></g><g transform="translate(1318.577 873)"><rect class="b" width="19" height="19"/><circle class="c" cx="8.5" cy="8.5" r="8.5" transform="translate(31 174)"/><path class="d" d="M9,0l9,16H0Z" transform="matrix(0.574, -0.819, 0.819, 0.574, 140.285, 30.784)"/><line class="e" x2="15" y2="15" transform="translate(47.5 47.5)"/></g><g transform="translate(1582.292 873)"><rect class="b" width="19" height="19"/><circle class="c" cx="8.5" cy="8.5" r="8.5" transform="translate(31 174)"/><path class="d" d="M9,0l9,16H0Z" transform="matrix(0.574, -0.819, 0.819, 0.574, 140.285, 30.784)"/><line class="e" x2="15" y2="15" transform="translate(47.5 47.5)"/></g><g transform="translate(1846.008 873)"><rect class="b" width="19" height="19"/><circle class="c" cx="8.5" cy="8.5" r="8.5" transform="translate(31 174)"/><path class="d" d="M9,0l9,16H0Z" transform="matrix(0.574, -0.819, 0.819, 0.574, 140.285, 30.784)"/><line class="e" x2="15" y2="15" transform="translate(47.5 47.5)"/></g></g></svg>